<svg width="948.000000" height="229.000000" viewBox="0 0 948 229" fill="none" xmlns="http://www.w3.org/2000/svg" xmlns:xlink="http://www.w3.org/1999/xlink">
	<desc>
			Created with Pixso.
	</desc>
	<defs>
		<linearGradient id="paint_linear_2_9_0" x1="473.999939" y1="0.000000" x2="473.999939" y2="182.000000" gradientUnits="userSpaceOnUse">
			<stop stop-color="#081F36"/>
			<stop offset="1.000000" stop-color="#2FB2EA"/>
		</linearGradient>
		<linearGradient id="paint_linear_2_10_0" x1="927.250549" y1="125.500015" x2="850.015137" y2="125.500015" gradientUnits="userSpaceOnUse">
			<stop stop-color="#142A3F"/>
			<stop offset="1.000000" stop-color="#0CA5DE"/>
		</linearGradient>
		<linearGradient id="paint_linear_2_11_0" x1="20.749418" y1="125.499992" x2="97.984810" y2="125.499992" gradientUnits="userSpaceOnUse">
			<stop stop-color="#142A3F"/>
			<stop offset="1.000000" stop-color="#0CA5DE"/>
		</linearGradient>
		<linearGradient id="paint_linear_2_13_0" x1="403.000000" y1="215.000000" x2="275.000000" y2="215.000000" gradientUnits="userSpaceOnUse">
			<stop stop-color="#11CCF6"/>
			<stop offset="1.000000" stop-color="#09667B"/>
		</linearGradient>
		<linearGradient id="paint_linear_2_14_0" x1="546.000000" y1="215.000000" x2="674.000000" y2="215.000000" gradientUnits="userSpaceOnUse">
			<stop stop-color="#11CCF6"/>
			<stop offset="1.000000" stop-color="#09667B"/>
		</linearGradient>
		<linearGradient id="paint_linear_2_15_0" x1="246.839508" y1="215.499985" x2="155.658539" y2="215.499985" gradientUnits="userSpaceOnUse">
			<stop stop-color="#0C687E"/>
			<stop offset="1.000000" stop-color="#1E2F3F"/>
		</linearGradient>
		<linearGradient id="paint_linear_2_16_0" x1="799.000000" y1="215.500031" x2="694.000000" y2="215.500031" gradientUnits="userSpaceOnUse">
			<stop stop-color="#0C687E"/>
			<stop offset="1.000000" stop-color="#1E2F3F"/>
		</linearGradient>
	</defs>
	<path id="路径 204" d="M1 0L947 0L806.106 182L141.894 182L1 0Z" fill-rule="nonzero" fill="url(#paint_linear_2_9_0)"/>
	<path id="路径 205" d="M868.608 100L948 100L908.392 151L829 151L868.608 100Z" fill-rule="nonzero" fill="url(#paint_linear_2_10_0)"/>
	<path id="路径 206" d="M79.3916 100L0 100L39.6084 151L119 151L79.3916 100Z" fill-rule="nonzero" fill="url(#paint_linear_2_11_0)"/>
	<rect id="矩形 284" x="410.000000" y="206.000000" width="128.000000" height="18.000000" fill="#11CCF6"/>
	<rect id="矩形 283" x="275.000000" y="206.000000" width="128.000000" height="18.000000" fill="url(#paint_linear_2_13_0)"/>
	<rect id="矩形 285" x="546.000000" y="206.000000" width="128.000000" height="18.000000" fill="url(#paint_linear_2_14_0)"/>
	<path id="减去 33" d="M223.946 202L198.806 202L191.307 229L216.447 229L223.946 202L223.946 202ZM222.11 229L245.736 229L253 202L229.609 202L222.11 229ZM155.264 202L193.143 202L185.644 229L148 229L155.264 202Z" clip-rule="evenodd" fill-rule="evenodd" fill="url(#paint_linear_2_15_0)" fill-opacity="1.000000"/>
	<path id="减去 34" d="M730.555 229L755.693 229L748.194 202L723.056 202L730.555 229ZM717.394 202L694 202L701.264 229L724.893 229L717.394 202ZM799 229L761.355 229L753.856 202L791.736 202L799 229Z" clip-rule="evenodd" fill-rule="evenodd" fill="url(#paint_linear_2_16_0)" fill-opacity="1.000000"/>
	<path id="路段详情" d="M376.018 108.692C379.338 106.717 382.542 104.26 385.397 101.487C388.12 104.127 391.241 106.65 394.777 108.692L376.018 108.692ZM377.711 125.344L377.711 114.055L392.868 114.055L392.868 125.344L377.711 125.344ZM367.169 103.994L359.217 103.994L359.217 95.0127L366.555 95.0127L366.555 91.958C367.982 93.0537 369.958 94.6807 370.904 95.6934C372.681 93.8672 374.523 91.6924 376.15 89.3018C377.645 91.8916 379.338 94.5479 381.513 97.1211C377.229 101.338 372.266 104.608 367.169 106.783L367.169 103.994ZM349.621 79.1084L360.711 79.1084L360.711 89.584L349.621 89.584L349.621 79.1084ZM391.241 83.0596C389.681 86.6621 387.639 89.9824 385.198 92.9873C382.741 90.1318 380.832 87.1934 379.271 84.2715L379.886 83.0596L391.241 83.0596ZM395.06 77.415L393.964 77.6807L382.409 77.6807C383.156 75.9873 383.837 74.2109 384.451 72.4512L378.325 70.9404C375.951 78.7764 371.668 86.1143 366.555 91.0781L366.555 73.6631L344.126 73.6631L344.126 95.0127L353.572 95.0127L353.572 121.542L349.09 122.555L349.09 100.74L343.91 100.74L343.91 123.65C342.765 123.85 341.669 124.049 340.656 124.265L341.735 130.374C349.09 128.681 358.951 126.307 368.265 123.916L367.65 118.338L359.217 120.313L359.217 109.572L367.169 109.572L367.169 109.506C367.85 110.452 368.53 111.481 368.945 112.295C369.958 111.88 370.904 111.415 371.934 110.934L371.934 133.163L377.711 133.163L377.711 130.789L392.868 130.789L392.868 132.964L398.928 132.964L398.928 110.867L400.289 111.415C401.103 109.838 402.945 107.331 404.157 106.169C398.38 104.127 393.482 101.006 389.332 97.2705C393.549 92.2402 396.952 86.1807 399.061 79.1084L395.06 77.415ZM447.886 78.9756L456.187 78.9756L456.187 89.9824C456.187 95.2285 457.199 97.4033 462.512 97.4033L466.994 97.4033C468.422 97.4033 469.85 97.4033 470.663 97.0547C470.464 95.6934 470.331 93.585 470.265 92.0908C469.368 92.373 467.874 92.5059 466.994 92.5059L463.06 92.5059C462.163 92.5059 461.964 91.8916 461.964 90.0488L461.964 73.5303L442.042 73.5303L442.042 81.6982C442.042 86.5957 441.229 92.373 434.621 96.7227C435.783 97.5361 438.157 99.6445 439.054 100.807C446.392 95.8428 447.886 88.0898 447.886 81.8311L447.886 78.9756ZM435.518 112.76C430.205 113.59 424.909 114.337 420.012 114.951L420.012 106.451L434.422 106.451L434.422 100.873L420.012 100.873L420.012 92.6387L434.488 92.6387L434.488 87.127L420.012 87.127L420.012 81.0176C425.789 79.374 432.048 77.415 436.879 75.1572L431.915 70.4092C427.549 72.7168 420.41 75.4395 414.085 77.2656L413.886 77.1992L413.886 115.765L408.374 116.512L409.337 122.488L413.886 121.741L413.886 132.15L420.012 132.15L420.012 120.795C425.042 119.981 430.487 119.085 435.783 118.205L435.518 112.76ZM459.308 106.717C457.681 111.066 455.373 114.735 452.451 117.807C449.313 114.603 446.807 110.867 445.097 106.717L459.308 106.717ZM462.977 101.139L461.831 101.338L437.56 101.338L437.56 106.717L443.121 106.717L439.801 107.597C441.843 112.909 444.632 117.591 448.085 121.542C443.735 124.663 438.572 126.838 432.795 128.199C434.023 129.494 435.518 131.951 436.049 133.645C442.241 131.802 447.819 129.295 452.584 125.692C456.734 129.013 461.632 131.669 467.343 133.229C468.223 131.603 469.982 129.096 471.277 127.867C465.832 126.639 461.018 124.53 457.066 121.675C461.549 116.844 464.886 110.585 466.861 102.5L462.977 101.139ZM495.897 82.0967C493.59 79.3076 488.692 75.2402 485.023 72.2354L481.006 76.3193C484.741 79.4404 489.439 83.873 491.614 86.7285L495.897 82.0967ZM492.76 119.633L492.76 91.958L476.922 91.958L476.922 98.0176L486.65 98.0176L486.65 121.061C486.65 124.464 484.741 126.771 483.38 127.934C484.476 128.88 486.103 131.121 486.717 132.416C487.796 130.922 489.705 129.295 500.994 120.446C500.313 119.234 499.301 116.711 498.819 115.084L492.76 119.633ZM538.729 111.681L522.825 111.681L522.825 103.38L535.343 103.38L535.343 97.6689L522.825 97.6689L522.825 89.5176L537.451 89.5176L537.451 83.7402L530.229 83.7402C532.006 80.4697 534.048 76.5186 535.741 72.7832L529.283 70.7412C527.988 74.7588 525.681 79.9219 523.639 83.7402L511.204 83.7402L516.085 81.8311C515.072 78.8428 512.632 74.5596 510.374 71.2227L504.729 73.2646C506.904 76.5186 509.096 80.8018 510.042 83.7402L501.26 83.7402L501.26 89.5176L516.434 89.5176L516.434 97.6689L503.368 97.6689L503.368 103.38L516.434 103.38L516.434 111.681L499.699 111.681L499.699 117.524L516.434 117.524L516.434 133.296L522.825 133.296L522.825 117.524L538.729 117.524L538.729 111.681ZM548.74 103.114C550.168 98.0176 551.247 90.0488 551.446 84.6865L546.897 84.1387C546.482 89.4512 545.403 96.9883 543.976 101.62L548.74 103.114ZM565.939 90.1318C565.259 87.6084 563.482 83.5908 562.121 80.5361L558.187 82.0967L558.187 71.0234L552.409 71.0234L552.409 133.296L558.187 133.296L558.187 82.6445C559.548 85.7656 560.976 89.7832 561.656 92.1572L565.939 90.1318ZM573.56 118.487L573.56 114.271L596.055 114.271L596.055 118.487L573.56 118.487ZM596.055 105.355L596.055 109.572L573.56 109.572L573.56 105.355L596.055 105.355ZM602.048 100.591L567.699 100.591L567.699 133.296L573.56 133.296L573.56 123.036L596.055 123.036L596.055 126.705C596.055 127.519 595.789 127.801 594.843 127.867C593.946 127.867 590.692 127.934 587.555 127.734C588.302 129.229 589.132 131.603 589.397 133.163C594.096 133.163 597.283 133.097 599.392 132.217C601.434 131.337 602.048 129.693 602.048 126.838L602.048 100.591ZM587.837 92.5723L587.837 88.6211L603.26 88.6211L603.26 84.2051L587.837 84.2051L587.837 80.6689L605.036 80.6689L605.036 75.9873L587.837 75.9873L587.837 70.9404L581.578 70.9404L581.578 75.9873L564.977 75.9873L564.977 80.6689L581.578 80.6689L581.578 84.2051L566.62 84.2051L566.62 88.6211L581.578 88.6211L581.578 92.5723L562.951 92.5723L562.951 97.2705L607.012 97.2705L607.012 92.5723L587.837 92.5723Z" fill-rule="evenodd" fill="#FFFFFF"/>
</svg>
