<svg width="948.000000" height="229.000000" viewBox="0 0 948 229" fill="none" xmlns="http://www.w3.org/2000/svg" xmlns:xlink="http://www.w3.org/1999/xlink">
	<desc>
			Created with Pixso.
	</desc>
	<defs>
		<linearGradient id="paint_linear_2_9_0" x1="473.999939" y1="0.000000" x2="473.999939" y2="182.000000" gradientUnits="userSpaceOnUse">
			<stop stop-color="#081F36"/>
			<stop offset="1.000000" stop-color="#2FB2EA"/>
		</linearGradient>
		<linearGradient id="paint_linear_2_10_0" x1="927.250549" y1="125.500015" x2="850.015137" y2="125.500015" gradientUnits="userSpaceOnUse">
			<stop stop-color="#142A3F"/>
			<stop offset="1.000000" stop-color="#0CA5DE"/>
		</linearGradient>
		<linearGradient id="paint_linear_2_11_0" x1="20.749418" y1="125.499992" x2="97.984810" y2="125.499992" gradientUnits="userSpaceOnUse">
			<stop stop-color="#142A3F"/>
			<stop offset="1.000000" stop-color="#0CA5DE"/>
		</linearGradient>
		<linearGradient id="paint_linear_2_13_0" x1="403.000000" y1="215.000000" x2="275.000000" y2="215.000000" gradientUnits="userSpaceOnUse">
			<stop stop-color="#11CCF6"/>
			<stop offset="1.000000" stop-color="#09667B"/>
		</linearGradient>
		<linearGradient id="paint_linear_2_14_0" x1="546.000000" y1="215.000000" x2="674.000000" y2="215.000000" gradientUnits="userSpaceOnUse">
			<stop stop-color="#11CCF6"/>
			<stop offset="1.000000" stop-color="#09667B"/>
		</linearGradient>
		<linearGradient id="paint_linear_2_15_0" x1="246.839508" y1="215.499985" x2="155.658539" y2="215.499985" gradientUnits="userSpaceOnUse">
			<stop stop-color="#0C687E"/>
			<stop offset="1.000000" stop-color="#1E2F3F"/>
		</linearGradient>
		<linearGradient id="paint_linear_2_16_0" x1="799.000000" y1="215.500031" x2="694.000000" y2="215.500031" gradientUnits="userSpaceOnUse">
			<stop stop-color="#0C687E"/>
			<stop offset="1.000000" stop-color="#1E2F3F"/>
		</linearGradient>
	</defs>
	<path id="路径 204" d="M1 0L947 0L806.106 182L141.894 182L1 0Z" fill-rule="nonzero" fill="url(#paint_linear_2_9_0)"/>
	<path id="路径 205" d="M868.608 100L948 100L908.392 151L829 151L868.608 100Z" fill-rule="nonzero" fill="url(#paint_linear_2_10_0)"/>
	<path id="路径 206" d="M79.3916 100L0 100L39.6084 151L119 151L79.3916 100Z" fill-rule="nonzero" fill="url(#paint_linear_2_11_0)"/>
	<rect id="矩形 284" x="410.000000" y="206.000000" width="128.000000" height="18.000000" fill="#11CCF6"/>
	<rect id="矩形 283" x="275.000000" y="206.000000" width="128.000000" height="18.000000" fill="url(#paint_linear_2_13_0)"/>
	<rect id="矩形 285" x="546.000000" y="206.000000" width="128.000000" height="18.000000" fill="url(#paint_linear_2_14_0)"/>
	<path id="减去 33" d="M223.946 202L198.806 202L191.307 229L216.447 229L223.946 202ZM222.11 229L245.736 229L253 202L229.609 202L222.11 229ZM155.264 202L193.143 202L185.644 229L148 229L155.264 202Z" clip-rule="evenodd" fill-rule="evenodd" fill="url(#paint_linear_2_15_0)" fill-opacity="1.000000"/>
	<path id="减去 34" d="M730.555 229L755.693 229L748.194 202L723.056 202L730.555 229ZM717.394 202L694 202L701.264 229L724.893 229L717.394 202ZM799 229L761.355 229L753.856 202L791.736 202L799 229Z" clip-rule="evenodd" fill-rule="evenodd" fill="url(#paint_linear_2_16_0)" fill-opacity="1.000000"/>
	<path id="路段热力图" d="M342.018 108.692C345.338 106.717 348.542 104.26 351.397 101.487C354.12 104.127 357.241 106.65 360.777 108.692L342.018 108.692ZM343.711 125.344L343.711 114.055L358.868 114.055L358.868 125.344L343.711 125.344ZM333.169 103.994L325.217 103.994L325.217 95.0127L332.555 95.0127L332.555 91.958C333.982 93.0537 335.958 94.6807 336.904 95.6934C338.681 93.8672 340.523 91.6924 342.15 89.3018C343.645 91.8916 345.338 94.5479 347.513 97.1211C343.229 101.338 338.266 104.608 333.169 106.783L333.169 103.994ZM315.621 79.1084L326.711 79.1084L326.711 89.584L315.621 89.584L315.621 79.1084ZM357.241 83.0596C355.681 86.6621 353.639 89.9824 351.198 92.9873C348.741 90.1318 346.832 87.1934 345.271 84.2715L345.886 83.0596L357.241 83.0596ZM361.06 77.415L359.964 77.6807L348.409 77.6807C349.156 75.9873 349.837 74.2109 350.451 72.4512L344.325 70.9404C341.951 78.7764 337.668 86.1143 332.555 91.0781L332.555 73.6631L310.126 73.6631L310.126 95.0127L319.572 95.0127L319.572 121.542L315.09 122.555L315.09 100.74L309.91 100.74L309.91 123.65C308.765 123.85 307.669 124.049 306.656 124.265L307.735 130.374C315.09 128.681 324.951 126.307 334.265 123.916L333.65 118.338L325.217 120.313L325.217 109.572L333.169 109.572L333.169 109.506C333.85 110.452 334.53 111.481 334.945 112.295C335.958 111.88 336.904 111.415 337.934 110.934L337.934 133.163L343.711 133.163L343.711 130.789L358.868 130.789L358.868 132.964L364.928 132.964L364.928 110.867L366.289 111.415C367.103 109.838 368.945 107.331 370.157 106.169C364.38 104.127 359.482 101.006 355.332 97.2705C359.549 92.2402 362.952 86.1807 365.061 79.1084L361.06 77.415ZM413.886 78.9756L422.187 78.9756L422.187 89.9824C422.187 95.2285 423.199 97.4033 428.512 97.4033L432.994 97.4033C434.422 97.4033 435.85 97.4033 436.663 97.0547C436.464 95.6934 436.331 93.585 436.265 92.0908C435.368 92.373 433.874 92.5059 432.994 92.5059L429.06 92.5059C428.163 92.5059 427.964 91.8916 427.964 90.0488L427.964 73.5303L408.042 73.5303L408.042 81.6982C408.042 86.5957 407.229 92.373 400.621 96.7227C401.783 97.5361 404.157 99.6445 405.054 100.807C412.392 95.8428 413.886 88.0898 413.886 81.8311L413.886 78.9756ZM401.518 112.76C396.205 113.59 390.909 114.337 386.012 114.951L386.012 106.451L400.422 106.451L400.422 100.873L386.012 100.873L386.012 92.6387L400.488 92.6387L400.488 87.127L386.012 87.127L386.012 81.0176C391.789 79.374 398.048 77.415 402.879 75.1572L397.915 70.4092C393.549 72.7168 386.41 75.4395 380.085 77.2656L379.886 77.1992L379.886 115.765L374.374 116.512L375.337 122.488L379.886 121.741L379.886 132.15L386.012 132.15L386.012 120.795C391.042 119.981 396.487 119.085 401.783 118.205L401.518 112.76ZM425.308 106.717C423.681 111.066 421.373 114.735 418.451 117.807C415.313 114.603 412.807 110.867 411.097 106.717L425.308 106.717ZM428.977 101.139L427.831 101.338L403.56 101.338L403.56 106.717L409.121 106.717L405.801 107.597C407.843 112.909 410.632 117.591 414.085 121.542C409.735 124.663 404.572 126.838 398.795 128.199C400.023 129.494 401.518 131.951 402.049 133.645C408.241 131.802 413.819 129.295 418.584 125.692C422.734 129.013 427.632 131.669 433.343 133.229C434.223 131.603 435.982 129.096 437.277 127.867C431.832 126.639 427.018 124.53 423.066 121.675C427.549 116.844 430.886 110.585 432.861 102.5L428.977 101.139ZM448.981 133.645C451.97 130.042 455.307 124.464 457.548 119.633L451.621 118.139C449.313 122.704 445.844 128 442.988 131.121L448.981 133.645ZM468.156 97.4697L467.476 91.7588L459.988 93.668L459.988 86.0479L467.476 86.0479L467.476 80.2041L459.988 80.2041L459.988 71.0898L454.145 71.0898L454.145 80.2041L444.549 80.2041L444.549 86.0479L454.145 86.0479L454.145 95.1621C449.994 96.1748 446.192 97.1211 443.121 97.8018L444.549 103.861L454.145 101.271L454.145 109.771C454.145 110.585 453.879 110.867 452.916 110.867C452.169 110.867 449.247 110.934 446.325 110.801C447.139 112.361 447.952 114.868 448.168 116.445C452.518 116.445 455.506 116.379 457.481 115.35C459.374 114.47 459.988 112.843 459.988 109.838L459.988 99.6445L468.156 97.4697ZM462.977 120.313C463.807 124.464 464.271 129.76 464.338 132.964L470.53 132.084C470.464 128.946 469.717 123.717 468.903 119.699L462.977 120.313ZM476.789 120.181C478.482 124.265 480.06 129.561 480.591 132.831L486.85 131.536C486.235 128.266 484.476 123.103 482.699 119.168L476.789 120.181ZM491.199 85.915C490.934 105.023 490.867 116.645 499.085 116.578C503.584 116.578 505.344 114.337 505.958 106.368C504.53 105.97 502.422 104.94 501.127 103.928C500.928 109.24 500.446 111.066 499.367 111.066C496.379 111.066 496.578 100.524 497.192 80.5361L483.513 80.5361C483.662 77.5479 483.662 74.2773 483.729 70.874L477.735 70.874C477.735 74.3438 477.669 77.5479 477.603 80.5361L469.036 80.5361L469.036 85.915L477.403 85.915C477.204 89.7832 476.789 93.1865 476.108 96.2412C474.481 95.1621 472.771 94.1992 471.277 93.3857L468.223 97.7354C470.132 98.8975 472.373 100.259 474.548 101.62C472.639 106.169 469.65 109.639 464.886 112.361C466.247 113.374 468.09 115.549 468.837 117.06C474.066 113.988 477.47 110.054 479.645 104.94C482.5 106.982 485.09 108.892 486.916 110.452L490.12 105.355C488.078 103.729 484.874 101.554 481.487 99.4453C482.434 95.4941 482.981 91.0117 483.313 85.915L491.199 85.915ZM490.585 119.981C493.855 124.198 497.524 130.042 499.085 133.711L505.012 130.922C503.302 127.319 499.434 121.608 496.163 117.524L490.585 119.981ZM541.801 85.3672L541.801 83.6572L541.801 71.0898L535.127 71.0898L535.127 83.6572L535.127 85.3672L513.711 85.3672L513.711 91.8252L534.795 91.8252C533.766 104.061 529.35 118.487 511.669 128.614C513.163 129.76 515.554 132.15 516.566 133.711C535.874 122.289 540.506 105.837 541.519 91.8252L562.802 91.8252C561.656 114.055 560.229 123.368 557.904 125.56C557.091 126.373 556.277 126.572 554.783 126.572C553.09 126.572 548.939 126.572 544.44 126.157C545.669 128.066 546.549 130.855 546.698 132.698C550.699 132.897 555.049 132.964 557.506 132.698C560.162 132.416 561.922 131.735 563.765 129.561C566.753 126.091 568.048 116.03 569.542 88.4883C569.608 87.6084 569.675 85.3672 569.675 85.3672L541.801 85.3672ZM594.627 117.873C603.94 119.019 615.578 121.675 622.036 123.982L624.825 119.434C618.085 117.259 606.663 114.669 597.549 113.723L594.627 117.873ZM601.085 109.307C606.597 110.519 613.603 112.843 617.404 114.669L620.061 110.668C616.126 108.892 609.187 106.717 603.741 105.621L601.085 109.307ZM602.38 90.3311L618.566 90.3311C616.259 92.4395 613.47 94.415 610.266 96.1748C607.145 94.4814 604.488 92.4395 602.38 90.3311ZM623.879 85.2344L622.982 85.5L606.663 85.5C607.626 84.3379 608.439 83.1924 609.187 81.9639L604.023 80.2041C600.687 85.4336 594.976 90.5303 589.331 93.8672C590.56 94.7471 592.585 96.5898 593.548 97.6689C595.308 96.5234 597.084 95.0957 598.844 93.585C600.687 95.4277 602.795 97.1211 605.169 98.6982C599.657 101.072 593.747 102.832 588.103 103.928C589.265 105.09 590.477 107.597 591.091 109.091C597.549 107.597 604.355 105.156 610.481 101.886C615.91 104.741 622.036 106.916 628.162 108.211C628.909 106.783 630.47 104.608 631.698 103.513C626.187 102.5 620.675 100.939 615.645 98.7646C620.542 95.5605 624.626 91.8252 627.415 87.4092L623.879 85.2344ZM587.771 125.145L587.771 79.5234L632.03 79.5234L632.03 125.145L587.771 125.145ZM581.711 73.7959L581.711 133.379L587.771 133.379L587.771 130.723L632.03 130.723L632.03 133.379L638.355 133.379L638.355 73.7959L581.711 73.7959Z" fill-rule="evenodd" fill="#FFFFFF"/>
</svg>
