<svg width="948.000000" height="229.000000" viewBox="0 0 948 229" fill="none" xmlns="http://www.w3.org/2000/svg" xmlns:xlink="http://www.w3.org/1999/xlink">
	<desc>
			Created with Pixso.
	</desc>
	<defs>
		<linearGradient id="paint_linear_2_9_0" x1="473.999939" y1="0.000000" x2="473.999939" y2="182.000000" gradientUnits="userSpaceOnUse">
			<stop stop-color="#081F36"/>
			<stop offset="1.000000" stop-color="#2FB2EA"/>
		</linearGradient>
		<linearGradient id="paint_linear_2_10_0" x1="927.250549" y1="125.500015" x2="850.015137" y2="125.500015" gradientUnits="userSpaceOnUse">
			<stop stop-color="#142A3F"/>
			<stop offset="1.000000" stop-color="#0CA5DE"/>
		</linearGradient>
		<linearGradient id="paint_linear_2_11_0" x1="20.749418" y1="125.499992" x2="97.984810" y2="125.499992" gradientUnits="userSpaceOnUse">
			<stop stop-color="#142A3F"/>
			<stop offset="1.000000" stop-color="#0CA5DE"/>
		</linearGradient>
		<linearGradient id="paint_linear_2_13_0" x1="403.000000" y1="215.000000" x2="275.000000" y2="215.000000" gradientUnits="userSpaceOnUse">
			<stop stop-color="#11CCF6"/>
			<stop offset="1.000000" stop-color="#09667B"/>
		</linearGradient>
		<linearGradient id="paint_linear_2_14_0" x1="546.000000" y1="215.000000" x2="674.000000" y2="215.000000" gradientUnits="userSpaceOnUse">
			<stop stop-color="#11CCF6"/>
			<stop offset="1.000000" stop-color="#09667B"/>
		</linearGradient>
		<linearGradient id="paint_linear_2_15_0" x1="246.839508" y1="215.499985" x2="155.658539" y2="215.499985" gradientUnits="userSpaceOnUse">
			<stop stop-color="#0C687E"/>
			<stop offset="1.000000" stop-color="#1E2F3F"/>
		</linearGradient>
		<linearGradient id="paint_linear_2_16_0" x1="799.000000" y1="215.500031" x2="694.000000" y2="215.500031" gradientUnits="userSpaceOnUse">
			<stop stop-color="#0C687E"/>
			<stop offset="1.000000" stop-color="#1E2F3F"/>
		</linearGradient>
	</defs>
	<path id="路径 204" d="M1 0L947 0L806.106 182L141.894 182L1 0Z" fill-rule="nonzero" fill="url(#paint_linear_2_9_0)"/>
	<path id="路径 205" d="M868.608 100L948 100L908.392 151L829 151L868.608 100Z" fill-rule="nonzero" fill="url(#paint_linear_2_10_0)"/>
	<path id="路径 206" d="M79.3916 100L0 100L39.6084 151L119 151L79.3916 100Z" fill-rule="nonzero" fill="url(#paint_linear_2_11_0)"/>
	<rect id="矩形 284" x="410.000000" y="206.000000" width="128.000000" height="18.000000" fill="#11CCF6"/>
	<rect id="矩形 283" x="275.000000" y="206.000000" width="128.000000" height="18.000000" fill="url(#paint_linear_2_13_0)"/>
	<rect id="矩形 285" x="546.000000" y="206.000000" width="128.000000" height="18.000000" fill="url(#paint_linear_2_14_0)"/>
	<path id="减去 33" d="M223.946 202L198.806 202L191.307 229L216.447 229L223.946 202ZM222.11 229L245.736 229L253 202L229.609 202L222.11 229ZM155.264 202L193.143 202L185.644 229L148 229L155.264 202Z" clip-rule="evenodd" fill-rule="evenodd" fill="url(#paint_linear_2_15_0)" fill-opacity="1.000000"/>
	<path id="减去 34" d="M730.555 229L755.693 229L748.194 202L723.056 202L730.555 229ZM717.394 202L694 202L701.264 229L724.893 229L717.394 202ZM799 229L761.355 229L753.856 202L791.736 202L799 229Z" clip-rule="evenodd" fill-rule="evenodd" fill="url(#paint_linear_2_16_0)" fill-opacity="1.000000"/>
	<path id="智慧交通大数据分析平台" d="M107.367 86.9277C108.795 85.3672 110.156 83.5244 111.302 81.3496L116.066 81.3496L116.066 84.8193C116.066 85.5 116.066 86.1807 116 86.9277L107.367 86.9277ZM132.934 99.6445C131.091 98.3496 123.62 93.9336 120.831 92.5723L121.03 91.958L133.133 91.958L133.133 86.9277L121.977 86.9277C122.06 86.2471 122.06 85.5664 122.06 84.8857L122.06 81.3496L131.439 81.3496L131.439 76.3193L113.825 76.3193C114.373 74.8252 114.904 73.3975 115.386 71.8369L109.741 70.6748C108.313 75.7051 105.657 80.6689 102.271 84.0723C103.549 84.6201 105.873 86.1143 107.085 86.9277L102.47 86.9277L102.47 91.958L114.771 91.958C113.211 95.7598 109.675 99.7109 101.789 102.766C103.217 103.795 104.977 105.771 105.807 106.982C112.464 103.994 116.481 100.392 118.855 96.7227C122.126 98.9639 126.542 102.168 128.518 103.795L132.934 99.6445ZM148.091 110.319L148.091 115.632L118.175 115.632L118.175 110.319L148.091 110.319ZM118.175 125.825L118.175 120.38L148.091 120.38L148.091 125.825L118.175 125.825ZM111.916 133.296L118.175 133.296L118.175 130.922L148.091 130.922L148.091 133.229L154.549 133.229L154.549 105.289L111.916 105.289L111.916 133.296ZM154.018 94.9463L141.633 94.9463L141.633 81.8311L154.018 81.8311L154.018 94.9463ZM135.723 76.2529L135.723 100.524L160.26 100.524L160.26 76.2529L135.723 76.2529ZM212.023 94.6807L217.934 94.6807L217.934 91.626L229.97 91.626L229.97 87.6748L217.934 87.6748L217.934 84.7529L227.596 84.7529L227.596 80.8682L217.934 80.8682L217.934 78.0957L228.741 78.0957L228.741 74.1445L217.934 74.1445L217.934 70.9404L212.023 70.9404L212.023 74.1445L201.813 74.1445L201.813 78.0957L212.023 78.0957L212.023 80.8682L203.241 80.8682L203.241 84.7529L212.023 84.7529L212.023 87.6748L201.133 87.6748L201.133 91.626L212.023 91.626L212.023 94.6807ZM224.392 95.6934L176.928 95.6934L176.928 99.8438L218.199 99.8438L218.199 103.114L179.169 103.114L179.169 107.049L218.199 107.049L218.199 110.452L176.513 110.452L176.513 114.603L199.705 114.603L196.302 117.524C199.506 119.434 203.175 122.422 204.802 124.53L208.819 120.928C207.126 119.019 203.723 116.379 200.668 114.603L224.392 114.603L224.392 95.6934ZM182.904 94.6807L188.765 94.6807L188.765 91.4766L198.892 91.4766L198.892 87.542L188.765 87.542L188.765 84.7529L197.198 84.7529L197.198 80.8682L188.765 80.8682L188.765 78.0957L198.078 78.0957L198.078 74.1445L188.765 74.1445L188.765 70.9404L182.904 70.9404L182.904 74.1445L172.512 74.1445L172.512 78.0957L182.904 78.0957L182.904 80.8682L174.072 80.8682L174.072 84.7529L182.904 84.7529L182.904 87.542L171.632 87.542L171.632 91.4766L182.904 91.4766L182.904 94.6807ZM177.061 131.735C179.451 128.548 181.344 123.584 182.771 119.699L177.343 117.458C176.114 121.193 174.006 125.825 171.549 128.681L177.061 131.735ZM196.783 127.187C192.832 127.187 192.168 126.987 192.168 125.211L192.168 117.126L185.976 117.126L185.976 125.277C185.976 130.855 188.018 132.416 196.368 132.416L210.181 132.416C216.506 132.416 218.332 130.656 219.096 123.103C217.452 122.771 214.945 121.94 213.584 121.061C213.235 126.439 212.704 127.187 209.633 127.187L196.783 127.187ZM219.229 118.554C221.868 122.555 224.657 128.133 225.687 131.536L231.879 129.693C230.783 126.157 227.729 120.861 225.006 116.91L219.229 118.554ZM298.235 79.9883L271.988 79.9883L273.964 79.2412C273.018 76.8672 270.843 73.0488 269 70.2764L263.023 72.3018C264.451 74.6924 266.012 77.6807 267.024 79.9883L239.632 79.9883L239.632 86.1143L298.235 86.1143L298.235 79.9883ZM276.271 91.0117C282.464 95.2949 289.951 101.687 293.338 105.903L298.65 101.753C294.981 97.5361 287.295 91.4102 281.235 87.4092L276.271 91.0117ZM256.15 87.6084C252.199 92.6387 245.542 97.7354 239.549 101.006C240.977 102.019 243.434 104.409 244.513 105.621C250.439 101.886 257.645 95.7598 262.343 89.9824L256.15 87.6084ZM278.596 99.0967C276.404 104.874 273.283 109.639 269.199 113.59C265.049 109.639 261.861 104.874 259.687 99.4453L253.976 101.205C256.698 107.597 260.168 112.976 264.451 117.524C257.578 122.422 248.796 125.692 238.47 127.734C239.698 129.162 241.591 131.951 242.271 133.445C252.747 130.855 261.795 127.187 269.133 121.675C276.139 127.187 284.904 130.922 295.928 132.964C296.741 131.204 298.451 128.614 299.796 127.319C289.337 125.626 280.771 122.355 273.964 117.591C278.596 113.108 282.265 107.663 284.987 101.006L278.596 99.0967ZM343.458 92.5723L343.458 97.4697L333.663 97.4697L333.663 92.5723L343.458 92.5723ZM359.296 92.5723L359.296 97.4697L349.169 97.4697L349.169 92.5723L359.296 92.5723ZM349.169 107.198L349.169 102.085L359.296 102.085L359.296 107.198L349.169 107.198ZM333.663 107.198L333.663 102.085L343.458 102.085L343.458 107.198L333.663 107.198ZM333.663 111.946L343.458 111.946L343.458 122.422L349.169 122.422L349.169 111.946L359.296 111.946L359.296 116.777C359.296 117.591 359.03 117.873 358.217 117.873C357.47 117.873 354.813 117.939 352.024 117.807C352.771 119.234 353.519 121.343 353.734 122.903C358.018 122.903 360.873 122.837 362.832 121.94C364.741 121.127 365.289 119.699 365.289 116.844L365.289 87.8076L356.523 87.8076C355.295 87.0605 353.867 86.3135 352.157 85.5664C356.988 82.8438 361.687 79.374 365.223 75.9043L361.404 72.916L360.192 73.2646L328.019 73.2646L328.019 78.1621L354.481 78.1621C352.157 79.8555 349.451 81.6982 346.795 82.9766C343.524 81.6318 340.204 80.3369 337.332 79.374L333.265 82.8438C336.867 84.2051 341.15 86.0479 344.886 87.8076L327.753 87.8076L327.753 122.704L333.663 122.704L333.663 111.946ZM323.337 84.5537C320.88 81.4824 315.518 76.7344 311.566 73.4639L307.217 77.1992C311.234 80.7354 316.464 85.6992 318.838 88.8369L323.337 84.5537ZM321.162 96.4404L305.988 96.4404L305.988 102.301L315.103 102.301L315.103 120.181C312.181 121.409 308.844 124.198 305.656 127.585L309.524 132.831C312.729 128.481 316.049 124.597 318.24 124.597C319.734 124.597 321.976 126.771 324.698 128.332C329.446 131.121 334.958 131.868 343.259 131.868C350.53 131.868 362.085 131.536 366.982 131.204C367.049 129.561 368.012 126.705 368.692 125.078C361.753 125.892 351.145 126.506 343.458 126.506C336.054 126.506 330.193 126.024 325.777 123.368C323.669 122.09 322.374 121.061 321.162 120.313L321.162 96.4404ZM434.85 96.3076L434.85 89.7832L407.44 89.7832C408.271 83.0596 408.337 76.5186 408.403 71.0234L401.53 71.0234C401.464 76.4521 401.53 82.9766 400.717 89.7832L375.416 89.7832L375.416 96.3076L399.555 96.3076C396.832 108.626 390.241 120.861 374.055 127.934C375.831 129.295 377.873 131.536 378.886 133.229C394.325 125.958 401.663 114.204 405.133 101.886C410.445 116.296 418.663 127.319 431.38 133.229C432.409 131.337 434.518 128.681 436.078 127.319C423.229 121.94 414.662 110.452 410.03 96.3076L434.85 96.3076ZM468.584 72.0361C467.422 74.6924 465.38 78.4277 463.753 80.8682L467.837 82.7109C469.663 80.6025 471.838 77.332 473.88 74.2773L468.584 72.0361ZM453.477 81.0176C452.879 78.5605 451.036 75.0244 449.26 72.4512L444.645 74.3438C446.404 77.0664 448.114 80.7354 448.662 83.126L453.477 81.0176ZM456 100.657L461.777 100.657L461.777 92.2402C464.766 94.4814 468.235 97.2705 469.879 98.8311L473.266 94.332C471.838 93.3857 466.874 90.2646 463.554 88.2891L475.175 88.2891L475.175 83.2588L461.777 83.2588L461.777 70.9404L456 70.9404L456 83.2588L442.536 83.2588L442.536 88.2891L454.024 88.2891C450.771 92.2402 445.939 95.9092 441.523 97.6689C442.735 98.8975 444.163 101.006 444.844 102.434C448.662 100.392 452.729 97.0547 456 93.5186L456 100.657ZM465.928 110.867C464.5 113.855 462.591 116.445 460.35 118.687C458.108 117.524 455.867 116.445 453.626 115.482C454.439 114.055 455.319 112.494 456.199 110.867L465.928 110.867ZM470.41 124.53C468.982 123.518 467.09 122.422 465.114 121.26C468.65 117.392 471.373 112.627 473.066 106.783L469.663 105.422L468.65 105.704L458.656 105.704C459.121 104.608 459.603 103.596 460.018 102.566L454.373 101.487C453.958 102.832 453.344 104.193 452.663 105.704L443.831 105.704L443.831 110.867L450.09 110.867C448.662 113.308 447.301 115.765 445.939 117.591C449.127 118.886 452.663 120.446 455.934 122.223C451.783 125.012 446.952 126.904 441.723 128.133C442.802 129.295 444.03 131.536 444.578 132.897C450.771 131.271 456.332 128.747 461.03 125.078C463.205 126.307 465.114 127.585 466.608 128.747L470.41 124.53ZM493.121 89.6504C492.175 96.5898 490.747 102.566 488.771 107.879C486.53 102.301 484.837 96.1748 483.675 89.6504L493.121 89.6504ZM503.397 89.6504L503.397 83.7402L484.771 83.7402C485.65 80.0547 486.397 76.1865 486.945 72.2354L481.168 71.4219C479.591 83.3252 476.536 94.6143 471.24 101.753C472.585 102.633 474.976 104.608 475.922 105.704C477.416 103.513 478.844 101.006 480.072 98.1504C481.434 104.127 483.26 109.572 485.518 114.47C481.832 120.596 476.735 125.145 469.663 128.481C470.692 129.693 472.452 132.35 473 133.645C479.657 130.175 484.704 125.759 488.572 120.247C491.843 125.41 495.844 129.76 500.808 132.765C501.771 131.271 503.53 128.946 504.958 127.867C499.596 124.879 495.296 120.313 491.976 114.536C495.445 107.729 497.554 99.5117 498.981 89.6504L503.397 89.6504ZM531.139 105.771L530.259 100.06L523.734 101.952L523.734 90.0488L531.006 90.0488L531.006 84.2051L523.734 84.2051L523.734 71.0898L517.94 71.0898L517.94 84.2051L510.055 84.2051L510.055 90.0488L517.94 90.0488L517.94 103.596C514.62 104.542 511.632 105.422 509.175 106.036L510.603 112.162L517.94 109.904L517.94 125.759C517.94 126.705 517.608 126.987 516.729 126.987C515.981 126.987 513.458 126.987 510.735 126.904C511.549 128.548 512.296 131.271 512.445 132.765C516.729 132.765 519.451 132.549 521.277 131.536C523.12 130.59 523.734 128.88 523.734 125.759L523.734 108.078L531.139 105.771ZM539.639 98.9639C539.705 97.2705 539.705 95.6934 539.705 94.1992L539.705 92.1572L551.476 92.1572L551.476 98.9639L539.639 98.9639ZM563.711 79.3076L563.711 86.6621L539.705 86.6621L539.705 79.3076L563.711 79.3076ZM564.259 125.892L545.416 125.892L545.416 117.126L564.259 117.126L564.259 125.892ZM571.796 104.26L571.796 98.9639L557.386 98.9639L557.386 92.1572L569.704 92.1572L569.704 73.7959L533.596 73.7959L533.596 94.1992C533.596 104.874 532.981 119.566 526.042 129.76C527.536 130.374 530.126 132.35 531.271 133.379C536.65 125.41 538.626 114.204 539.373 104.26L551.476 104.26L551.476 111.813L539.904 111.813L539.904 133.379L545.416 133.379L545.416 130.988L564.259 130.988L564.259 133.163L569.97 133.163L569.97 111.813L557.386 111.813L557.386 104.26L571.796 104.26ZM615.192 74.3438C618.861 81.8311 624.307 89.8496 629.735 96.1084L589.825 96.1084C595.271 89.9824 600.085 82.2295 603.422 74.0781L596.698 72.1025C592.813 82.2959 585.94 91.7588 577.988 97.4697C579.549 98.6318 582.205 101.072 583.367 102.434C584.994 101.072 586.555 99.5781 588.198 97.8682L588.198 102.367L600.168 102.367C598.74 113.108 594.988 122.97 579.482 128.066C580.91 129.428 582.753 131.951 583.434 133.578C600.633 127.386 605.049 115.482 606.825 102.367L623.477 102.367C622.729 117.873 621.916 124.198 620.355 125.759C619.675 126.439 618.861 126.572 617.566 126.572C615.939 126.572 611.988 126.572 607.904 126.24C609.066 128 609.88 130.723 610.013 132.549C614.163 132.765 618.181 132.765 620.488 132.482C622.945 132.283 624.506 131.669 626.133 129.843C628.374 127.187 629.337 119.367 630.217 98.9639C630.283 98.416 630.283 97.4697 630.283 96.7227C631.977 98.6318 633.62 100.392 635.313 101.819C636.409 100.126 638.717 97.7354 640.344 96.4404C633.338 91.0117 625.187 80.9512 621.036 71.9697L615.192 74.3438ZM671.97 106.518C670.675 104.608 665.229 97.3369 662.789 94.2656L662.789 91.1445L672.518 91.1445L672.518 85.168L662.789 85.168L662.789 70.9404L656.729 70.9404L656.729 85.168L647.018 85.168L647.018 91.1445L655.982 91.1445C653.94 99.9102 649.591 109.904 645.175 115.416C646.204 116.91 647.698 119.434 648.379 121.26C651.5 117.126 654.422 110.668 656.729 103.795L656.729 133.379L662.789 133.379L662.789 102.168C664.897 105.488 667.072 109.24 668.168 111.481L671.97 106.518ZM708.012 93.8672L681.632 93.8672L681.632 82.8438C689.518 81.3496 697.951 79.3076 704.26 76.668L698.897 71.7041C693.452 74.2773 684.006 76.8008 675.639 78.3613L675.639 98.7646C675.639 108.211 675.091 121.127 668.915 130.042C670.409 130.656 673.049 132.217 674.145 133.229C680.403 124.132 681.549 110.12 681.632 99.8438L692.439 99.8438L692.439 133.379L698.698 133.379L698.698 99.8438L708.012 99.8438L708.012 93.8672ZM775.464 103.861L748.204 103.861L748.204 81.5488L771.596 81.5488L771.596 75.373L718.271 75.373L718.271 81.5488L741.663 81.5488L741.663 103.861L714.735 103.861L714.735 110.253L741.663 110.253L741.663 133.379L748.204 133.379L748.204 110.253L775.464 110.253L775.464 103.861ZM722.704 86.1143C725.145 90.8789 727.452 97.2041 728.332 101.072L734.392 99.0303C733.512 95.0957 730.922 89.0361 728.415 84.3379L722.704 86.1143ZM760.157 101.139C762.681 97.3369 765.669 91.2109 768.126 85.915L761.386 84.0723C759.892 88.8369 757.036 95.2949 754.729 99.3789L760.157 101.139ZM828.307 110.452L828.307 123.65L797.361 123.65L797.361 110.452L828.307 110.452ZM790.97 133.379L797.361 133.379L797.361 129.76L828.307 129.76L828.307 133.229L835.03 133.229L835.03 104.409L790.97 104.409L790.97 133.379ZM819.192 81.2832C822.114 84.0059 825.235 87.2764 828.157 90.5303L796.548 91.8252C802.126 86.5127 807.903 79.9219 812.801 73.0488L806.476 70.3428C801.512 78.5605 793.825 86.9277 791.451 89.1689C789.193 91.3438 787.5 92.7715 785.873 93.0537C786.554 94.8135 787.633 97.9512 787.915 99.2295C790.97 98.1504 795.319 98.0176 832.723 96.042C834.283 98.0176 835.645 99.9102 836.657 101.62L841.97 97.6689C838.434 92.0908 830.481 83.7402 824.09 77.9463L819.192 81.2832Z" fill-rule="evenodd" fill="#FFFFFF"/>
</svg>
