<svg width="948.000000" height="229.000000" viewBox="0 0 948 229" fill="none" xmlns="http://www.w3.org/2000/svg" xmlns:xlink="http://www.w3.org/1999/xlink">
	<desc>
			Created with Pixso.
	</desc>
	<defs>
		<linearGradient id="paint_linear_2_9_0" x1="473.999939" y1="0.000000" x2="473.999939" y2="182.000000" gradientUnits="userSpaceOnUse">
			<stop stop-color="#081F36"/>
			<stop offset="1.000000" stop-color="#2FB2EA"/>
		</linearGradient>
		<linearGradient id="paint_linear_2_10_0" x1="927.250549" y1="125.500015" x2="850.015137" y2="125.500015" gradientUnits="userSpaceOnUse">
			<stop stop-color="#142A3F"/>
			<stop offset="1.000000" stop-color="#0CA5DE"/>
		</linearGradient>
		<linearGradient id="paint_linear_2_11_0" x1="20.749418" y1="125.499992" x2="97.984810" y2="125.499992" gradientUnits="userSpaceOnUse">
			<stop stop-color="#142A3F"/>
			<stop offset="1.000000" stop-color="#0CA5DE"/>
		</linearGradient>
		<linearGradient id="paint_linear_2_13_0" x1="403.000000" y1="215.000000" x2="275.000000" y2="215.000000" gradientUnits="userSpaceOnUse">
			<stop stop-color="#11CCF6"/>
			<stop offset="1.000000" stop-color="#09667B"/>
		</linearGradient>
		<linearGradient id="paint_linear_2_14_0" x1="546.000000" y1="215.000000" x2="674.000000" y2="215.000000" gradientUnits="userSpaceOnUse">
			<stop stop-color="#11CCF6"/>
			<stop offset="1.000000" stop-color="#09667B"/>
		</linearGradient>
		<linearGradient id="paint_linear_2_15_0" x1="246.839508" y1="215.499985" x2="155.658539" y2="215.499985" gradientUnits="userSpaceOnUse">
			<stop stop-color="#0C687E"/>
			<stop offset="1.000000" stop-color="#1E2F3F"/>
		</linearGradient>
		<linearGradient id="paint_linear_2_16_0" x1="799.000000" y1="215.500031" x2="694.000000" y2="215.500031" gradientUnits="userSpaceOnUse">
			<stop stop-color="#0C687E"/>
			<stop offset="1.000000" stop-color="#1E2F3F"/>
		</linearGradient>
	</defs>
	<path id="路径 204" d="M1 0L947 0L806.106 182L141.894 182L1 0Z" fill-rule="nonzero" fill="url(#paint_linear_2_9_0)"/>
	<path id="路径 205" d="M868.608 100L948 100L908.392 151L829 151L868.608 100Z" fill-rule="nonzero" fill="url(#paint_linear_2_10_0)"/>
	<path id="路径 206" d="M79.3916 100L0 100L39.6084 151L119 151L79.3916 100Z" fill-rule="nonzero" fill="url(#paint_linear_2_11_0)"/>
	<rect id="矩形 284" x="410.000000" y="206.000000" width="128.000000" height="18.000000" fill="#11CCF6"/>
	<rect id="矩形 283" x="275.000000" y="206.000000" width="128.000000" height="18.000000" fill="url(#paint_linear_2_13_0)"/>
	<rect id="矩形 285" x="546.000000" y="206.000000" width="128.000000" height="18.000000" fill="url(#paint_linear_2_14_0)"/>
	<path id="减去 33" d="M223.946 202L198.806 202L191.307 229L216.447 229L223.946 202ZM222.11 229L245.736 229L253 202L229.609 202L222.11 229ZM155.264 202L193.143 202L185.644 229L148 229L155.264 202Z" clip-rule="evenodd" fill-rule="evenodd" fill="url(#paint_linear_2_15_0)" fill-opacity="1.000000"/>
	<path id="减去 34" d="M730.555 229L755.693 229L748.194 202L723.056 202L730.555 229ZM717.394 202L694 202L701.264 229L724.893 229L717.394 202ZM799 229L761.355 229L753.856 202L791.736 202L799 229Z" clip-rule="evenodd" fill-rule="evenodd" fill="url(#paint_linear_2_16_0)" fill-opacity="1.000000"/>
	<path id="路段模拟" d="M376.018 108.692C379.338 106.717 382.542 104.26 385.397 101.487C388.12 104.127 391.241 106.65 394.777 108.692L376.018 108.692ZM377.711 125.344L377.711 114.055L392.868 114.055L392.868 125.344L377.711 125.344ZM367.169 103.994L359.217 103.994L359.217 95.0127L366.555 95.0127L366.555 91.958C367.982 93.0537 369.958 94.6807 370.904 95.6934C372.681 93.8672 374.523 91.6924 376.15 89.3018C377.645 91.8916 379.338 94.5479 381.513 97.1211C377.229 101.338 372.266 104.608 367.169 106.783L367.169 103.994ZM349.621 79.1084L360.711 79.1084L360.711 89.584L349.621 89.584L349.621 79.1084ZM391.241 83.0596C389.681 86.6621 387.639 89.9824 385.198 92.9873C382.741 90.1318 380.832 87.1934 379.271 84.2715L379.886 83.0596L391.241 83.0596ZM395.06 77.415L393.964 77.6807L382.409 77.6807C383.156 75.9873 383.837 74.2109 384.451 72.4512L378.325 70.9404C375.951 78.7764 371.668 86.1143 366.555 91.0781L366.555 73.6631L344.126 73.6631L344.126 95.0127L353.572 95.0127L353.572 121.542L349.09 122.555L349.09 100.74L343.91 100.74L343.91 123.65C342.765 123.85 341.669 124.049 340.656 124.265L341.735 130.374C349.09 128.681 358.951 126.307 368.265 123.916L367.65 118.338L359.217 120.313L359.217 109.572L367.169 109.572L367.169 109.506C367.85 110.452 368.53 111.481 368.945 112.295C369.958 111.88 370.904 111.415 371.934 110.934L371.934 133.163L377.711 133.163L377.711 130.789L392.868 130.789L392.868 132.964L398.928 132.964L398.928 110.867L400.289 111.415C401.103 109.838 402.945 107.331 404.157 106.169C398.38 104.127 393.482 101.006 389.332 97.2705C393.549 92.2402 396.952 86.1807 399.061 79.1084L395.06 77.415ZM447.886 78.9756L456.187 78.9756L456.187 89.9824C456.187 95.2285 457.199 97.4033 462.512 97.4033L466.994 97.4033C468.422 97.4033 469.85 97.4033 470.663 97.0547C470.464 95.6934 470.331 93.585 470.265 92.0908C469.368 92.373 467.874 92.5059 466.994 92.5059L463.06 92.5059C462.163 92.5059 461.964 91.8916 461.964 90.0488L461.964 73.5303L442.042 73.5303L442.042 81.6982C442.042 86.5957 441.229 92.373 434.621 96.7227C435.783 97.5361 438.157 99.6445 439.054 100.807C446.392 95.8428 447.886 88.0898 447.886 81.8311L447.886 78.9756ZM435.518 112.76C430.205 113.59 424.909 114.337 420.012 114.951L420.012 106.451L434.422 106.451L434.422 100.873L420.012 100.873L420.012 92.6387L434.488 92.6387L434.488 87.127L420.012 87.127L420.012 81.0176C425.789 79.374 432.048 77.415 436.879 75.1572L431.915 70.4092C427.549 72.7168 420.41 75.4395 414.085 77.2656L413.886 77.1992L413.886 115.765L408.374 116.512L409.337 122.488L413.886 121.741L413.886 132.15L420.012 132.15L420.012 120.795C425.042 119.981 430.487 119.085 435.783 118.205L435.518 112.76ZM459.308 106.717C457.681 111.066 455.373 114.735 452.451 117.807C449.313 114.603 446.807 110.867 445.097 106.717L459.308 106.717ZM462.977 101.139L461.831 101.338L437.56 101.338L437.56 106.717L443.121 106.717L439.801 107.597C441.843 112.909 444.632 117.591 448.085 121.542C443.735 124.663 438.572 126.838 432.795 128.199C434.023 129.494 435.518 131.951 436.049 133.645C442.241 131.802 447.819 129.295 452.584 125.692C456.734 129.013 461.632 131.669 467.343 133.229C468.223 131.603 469.982 129.096 471.277 127.867C465.832 126.639 461.018 124.53 457.066 121.675C461.549 116.844 464.886 110.585 466.861 102.5L462.977 101.139ZM508 85.9814L513.977 85.9814L513.977 81.3496L523.224 81.3496L523.224 85.9814L529.35 85.9814L529.35 81.3496L537.982 81.3496L537.982 76.1201L529.35 76.1201L529.35 71.0234L523.224 71.0234L523.224 76.1201L513.977 76.1201L513.977 71.0234L508 71.0234L508 76.1201L499.019 76.1201L499.019 81.3496L508 81.3496L508 85.9814ZM499.566 105.023C498.404 102.981 493.308 94.8799 491.481 92.3066L491.481 89.6504L498.072 89.6504L498.072 83.8066L491.481 83.8066L491.481 70.9404L485.488 70.9404L485.488 83.8066L477.536 83.8066L477.536 89.6504L485.488 89.6504L485.488 90.3975C483.596 98.9639 480.06 108.759 476.175 114.055C477.204 115.698 478.698 118.487 479.379 120.313C481.554 116.844 483.729 111.681 485.488 106.103L485.488 133.379L491.481 133.379L491.481 100.458C493.108 103.729 494.868 107.331 495.698 109.572L499.566 105.023ZM507.253 100.06L528.603 100.06L528.603 104.061L507.253 104.061L507.253 100.06ZM507.253 91.8252L528.603 91.8252L528.603 95.6934L507.253 95.6934L507.253 91.8252ZM538.049 118.819L538.049 113.523L520.235 113.523C520.518 111.946 520.717 110.386 520.916 108.626L534.729 108.626L534.729 87.1934L501.343 87.1934L501.343 108.626L514.724 108.626C514.524 110.386 514.325 111.946 513.91 113.523L497.657 113.523L497.657 118.819L512.018 118.819C509.494 123.302 504.796 126.439 495.549 128.332C496.645 129.561 498.205 131.868 498.753 133.445C510.175 130.59 515.753 126.091 518.476 119.566C521.879 126.373 527.656 131.055 535.874 133.379C536.621 131.669 538.397 129.361 539.759 128.066C532.819 126.705 527.523 123.518 524.319 118.819L538.049 118.819ZM590.626 97.3369C589.331 92.0244 585.596 83.6572 581.977 77.2656L576.813 79.374C580.283 85.915 583.819 94.4814 584.981 99.7773L590.626 97.3369ZM564.512 100.192L558.668 101.952L558.668 90.0488L564.645 90.0488L564.645 84.2051L558.668 84.2051L558.668 71.0898L552.94 71.0898L552.94 84.2051L545.055 84.2051L545.055 90.0488L552.94 90.0488L552.94 103.596C549.62 104.608 546.549 105.355 544.108 106.036L545.536 112.162L552.94 109.838L552.94 126.24C552.94 127.187 552.608 127.452 551.729 127.452C550.981 127.452 548.458 127.452 545.735 127.386C546.549 129.096 547.296 131.669 547.445 133.229C551.729 133.229 554.451 133.03 556.277 132.018C558.054 131.055 558.668 129.361 558.668 126.307L558.668 108.078L565.392 105.903L564.512 100.192ZM575.386 115.018L575.386 73.8789L569.26 73.8789L569.26 116.445C569.26 119.832 567.301 122.156 565.873 123.169C566.952 124.132 568.596 126.439 569.193 127.801L569.193 127.585L569.26 127.801C570.621 125.958 572.729 124.049 587.771 113.042C587.156 111.813 586.061 109.506 585.513 107.879L575.386 115.018ZM608.373 128.681C606.879 122.771 602.795 113.44 598.91 105.903C601.019 96.5898 601.915 85.6328 602.313 72.8496L595.988 72.7168C595.308 99.1631 592.734 118.139 578.59 128.548C580.084 129.494 582.873 131.951 583.753 133.163C589.597 128.266 593.681 122.156 596.403 114.603C598.977 120.729 601.301 127.054 602.38 131.47L608.373 128.681Z" fill-rule="evenodd" fill="#FFFFFF"/>
</svg>
